<svg xmlns="http://www.w3.org/2000/svg" width="81" height="69" fill="none"><path stroke="#fff" stroke-linecap="round" stroke-linejoin="round" stroke-width="2" d="m65.146 25.27 4.354 1.98 4.354-1.98m3.563-2.77a7.917 7.917 0 1 1-15.834 0 7.917 7.917 0 0 1 15.834 0Zm-12.271-.396 4.354 1.98 4.354-1.98-4.354-5.146-4.354 5.146Z"/><path fill="url(#a)" d="M5.446 32.254a4.817 4.817 0 0 1-2.551-.711 5.435 5.435 0 0 1-1.854-1.892 5.158 5.158 0 0 1-.686-2.615v-1.193c0-.093.043-.14.127-.14h2.92c.068 0 .102.047.102.14v1.193c0 .567.19 1.058.571 1.473.381.406.838.61 1.371.61.542 0 1.003-.208 1.384-.623.38-.423.571-.91.571-1.46 0-.635-.414-1.189-1.244-1.663a9.83 9.83 0 0 0-.533-.305c-.212-.127-.465-.27-.762-.431L4 24.167c-.28-.16-.55-.313-.812-.457-.948-.559-1.655-1.257-2.12-2.095C.608 20.77.38 19.821.38 18.772c0-.965.237-1.837.71-2.616a5.323 5.323 0 0 1 1.854-1.828 4.815 4.815 0 0 1 2.501-.685c.923 0 1.77.228 2.54.685a5.29 5.29 0 0 1 1.84 1.854c.466.77.698 1.633.698 2.59v2.132c0 .068-.033.102-.101.102h-2.92c-.068 0-.102-.034-.102-.102l-.025-2.133c0-.609-.19-1.104-.571-1.485a1.856 1.856 0 0 0-1.359-.571c-.533 0-.99.203-1.37.61-.382.405-.572.888-.572 1.447 0 .567.118 1.04.355 1.421.246.381.69.745 1.333 1.092.068.034.225.119.47.254.246.135.516.288.813.457.304.16.58.309.825.444.245.127.393.204.444.229.863.482 1.545 1.075 2.044 1.777.508.703.762 1.566.762 2.59 0 .99-.229 1.879-.686 2.666a5.223 5.223 0 0 1-1.853 1.866 4.93 4.93 0 0 1-2.565.686ZM15.4 32h-2.945c-.068 0-.102-.042-.102-.127l.051-17.862c0-.068.034-.102.102-.102h3.174c.067 0 .127.034.177.102l2.374 3.428 2.362-3.428a.23.23 0 0 1 .19-.102h3.187c.076 0 .114.034.114.102l.05 17.862c0 .085-.033.127-.1.127h-2.946c-.068 0-.102-.042-.102-.127l-.025-13.267-2.73 3.961-2.704-3.96-.025 13.266c0 .085-.034.127-.102.127Zm10.042-.127 3.225-17.862c.017-.068.06-.102.127-.102h3.77c.068 0 .11.034.127.102l3.098 17.862c.009.085-.025.127-.101.127h-2.882c-.085 0-.132-.042-.14-.127l-.28-1.904h-3.541l-.28 1.904c-.008.085-.05.127-.127.127h-2.894c-.068 0-.102-.042-.102-.127Zm5.091-11.984-1.168 7.3h2.501l-1.066-7.3-.152-.965-.115.965ZM40.46 32h-2.945c-.068 0-.102-.042-.102-.127l.05-17.862c0-.068.035-.102.102-.102h5.256c.94 0 1.803.229 2.59.686a5.225 5.225 0 0 1 1.879 1.84c.474.77.711 1.643.711 2.616 0 .635-.097 1.21-.292 1.726a5.406 5.406 0 0 1-.686 1.308c-.254.355-.486.618-.698.787.94 1.041 1.41 2.264 1.41 3.669l.025 5.332c0 .085-.043.127-.127.127h-2.946c-.067 0-.101-.025-.101-.076V26.54c0-.626-.22-1.168-.66-1.625a2.167 2.167 0 0 0-1.625-.686h-1.714l-.026 7.643c0 .085-.033.127-.101.127Zm2.361-14.98h-2.234v4.087h2.234c.534 0 1.008-.198 1.422-.596.423-.398.635-.885.635-1.46 0-.55-.203-1.024-.61-1.422a1.978 1.978 0 0 0-1.447-.61ZM55.504 32H52.57c-.076 0-.114-.042-.114-.127V17.045H49.08c-.085 0-.127-.042-.127-.127l.025-2.907c0-.068.034-.102.102-.102h9.877c.093 0 .14.034.14.102v2.907c0 .085-.034.127-.102.127H55.58l.026 14.828c0 .085-.034.127-.102.127Z"/><path fill="#fff" d="M5.814 54.254c-.939 0-1.798-.237-2.577-.711a5.297 5.297 0 0 1-1.84-1.904c-.45-.804-.673-1.697-.673-2.679l.025-8.112c0-.965.22-1.837.66-2.616a5.122 5.122 0 0 1 1.816-1.891 4.82 4.82 0 0 1 2.59-.724c.964 0 1.823.233 2.577.698a5.127 5.127 0 0 1 1.815 1.892c.457.787.686 1.667.686 2.64v1.194c0 .068-.034.102-.102.102h-2.92c-.068 0-.101-.034-.101-.102v-1.193c0-.576-.187-1.071-.56-1.486a1.799 1.799 0 0 0-1.396-.622c-.617 0-1.091.212-1.421.635-.33.423-.496.914-.496 1.473v8.112c0 .635.187 1.155.56 1.562.371.397.824.596 1.357.596.559 0 1.025-.22 1.397-.66.372-.449.559-.948.559-1.498v-1.206c0-.068.033-.102.101-.102h2.945c.068 0 .102.034.102.102v1.206a5.3 5.3 0 0 1-.686 2.666 5.55 5.55 0 0 1-1.84 1.917c-.762.474-1.621.71-2.578.71Zm11.807 0a4.817 4.817 0 0 1-2.552-.711 5.546 5.546 0 0 1-1.866-1.892 5.086 5.086 0 0 1-.698-2.615l.025-8.24c0-.964.233-1.831.699-2.602a5.222 5.222 0 0 1 1.853-1.866 4.795 4.795 0 0 1 2.54-.71c.947 0 1.798.232 2.55.697a5.259 5.259 0 0 1 1.829 1.88c.465.778.698 1.645.698 2.602l.026 8.24a5.09 5.09 0 0 1-.686 2.602 5.402 5.402 0 0 1-1.854 1.904c-.77.474-1.624.71-2.564.71Zm0-3.136c.525 0 .982-.211 1.371-.635.39-.431.584-.914.584-1.447l-.025-8.24c0-.575-.182-1.061-.546-1.46-.364-.397-.825-.596-1.384-.596-.533 0-.99.195-1.371.584-.38.39-.571.88-.571 1.473v8.24c0 .566.19 1.057.571 1.472.38.406.838.61 1.371.61ZM27.523 54h-2.602c-.136 0-.203-.06-.203-.178l-.026-17.71c0-.135.068-.203.203-.203h2.35l4.392 10.245-.127-10.042c0-.135.076-.203.228-.203h2.577c.102 0 .153.068.153.203l.025 17.736c0 .101-.042.152-.127.152h-2.285l-4.507-9.572.19 9.369c0 .135-.08.203-.24.203Zm14.778 0h-2.933c-.076 0-.114-.042-.114-.127V39.045h-3.377c-.085 0-.127-.042-.127-.127l.025-2.907c0-.068.034-.102.102-.102h9.877c.093 0 .14.034.14.102v2.907c0 .085-.034.127-.102.127h-3.415l.025 14.828c0 .085-.034.127-.101.127Zm7.909 0h-2.945c-.068 0-.102-.042-.102-.127l.05-17.862c0-.068.035-.102.102-.102h5.256c.94 0 1.803.229 2.59.686a5.225 5.225 0 0 1 1.879 1.84c.474.77.711 1.642.711 2.616 0 .634-.097 1.21-.292 1.726a5.406 5.406 0 0 1-.686 1.308c-.254.355-.486.618-.698.787.94 1.041 1.41 2.264 1.41 3.669l.025 5.332c0 .085-.043.127-.127.127h-2.946c-.067 0-.101-.025-.101-.076V48.54c0-.626-.22-1.168-.66-1.625a2.167 2.167 0 0 0-1.625-.685h-1.714l-.026 7.642c0 .085-.033.127-.101.127Zm2.361-14.98h-2.234v4.087h2.234c.534 0 1.008-.199 1.422-.596.423-.398.635-.885.635-1.46 0-.55-.203-1.024-.61-1.422a1.978 1.978 0 0 0-1.447-.61Zm11.947 15.234a4.817 4.817 0 0 1-2.552-.711 5.545 5.545 0 0 1-1.866-1.892 5.086 5.086 0 0 1-.699-2.615l.026-8.24c0-.964.233-1.831.698-2.602a5.222 5.222 0 0 1 1.853-1.866 4.795 4.795 0 0 1 2.54-.71c.948 0 1.798.232 2.551.697a5.258 5.258 0 0 1 1.828 1.88c.466.778.699 1.645.699 2.602l.025 8.24a5.09 5.09 0 0 1-.685 2.602 5.4 5.4 0 0 1-1.854 1.904c-.77.474-1.625.71-2.564.71Zm0-3.136c.524 0 .981-.211 1.37-.635.39-.431.585-.914.585-1.447l-.026-8.24c0-.575-.182-1.061-.546-1.46-.364-.397-.825-.596-1.383-.596-.534 0-.99.195-1.371.584-.381.39-.572.88-.572 1.473v8.24c0 .566.19 1.057.572 1.472.38.406.837.61 1.37.61ZM80.095 54H71.69c-.067 0-.101-.042-.101-.127l.025-17.837c0-.084.043-.127.127-.127h2.895c.084 0 .127.043.127.127l-.026 14.765h5.358c.084 0 .127.042.127.127v2.945c0 .085-.043.127-.127.127Z"/><defs><linearGradient id="a" x1="30" x2="90.5" y1="0" y2="0" gradientUnits="userSpaceOnUse"><stop stop-color="#18C726"/><stop offset=".693" stop-color="#02A518"/></linearGradient></defs></svg>
