<svg xmlns="http://www.w3.org/2000/svg" width="22" height="25" fill="none"><path fill="#fff" d="M21.154 4.008c0-.43-.254-.516-.38-.516h-8.759c-.634 0-.634.645-.634.645v1.248c0 .559.338.688.508.688h6.092c.254.043.634.215.634.903v5.85c.043.172.127.56.635.56h1.354s.55 0 .55-.646V4.008Z"/><path fill="#fff" d="M15.865 9.385c.043-.43-.254-.516-.38-.516H6.727c-.635 0-.635.645-.635.645v1.248c0 .559.339.688.508.688h6.092c.254.043.635.215.635.903v5.85c.042.172.127.56.634.56h1.354s.55 0 .55-.646V9.385Z"/><path fill="#fff" d="M2.242 23.623c.085.086.423.345.889-.129l4.4-4.473c.127-.13.507-.43.507.172v4.387c.043.173.127.56.635.56h1.354s.55 0 .55-.646v-8.732c0-.43-.254-.473-.381-.516H1.438c-.634 0-.634.645-.634.645v1.248c0 .559.338.688.507.688h4.062c.17 0 .677.043.211.516l-4.23 4.388s-.508.473-.085.903l.973.99Z"/></svg>