<svg xmlns="http://www.w3.org/2000/svg" width="24" height="24" fill="none"><g fill="#04D318" clip-path="url(#a)"><path d="m5.07 4.5.337.668L5.82 6H9v3.75H3V4.5h2.07ZM5.535 3H2.25a.75.75 0 0 0-.75.75v6.75a.75.75 0 0 0 .75.75h7.5a.75.75 0 0 0 .75-.75V5.25a.75.75 0 0 0-.75-.75h-3l-.54-1.087A.75.75 0 0 0 5.535 3ZM17.07 4.5l.337.668.413.832H21v3.75h-6V4.5h2.07Zm.465-1.5H14.25a.75.75 0 0 0-.75.75v6.75a.75.75 0 0 0 .75.75h7.5a.75.75 0 0 0 .75-.75V5.25a.75.75 0 0 0-.75-.75h-3l-.54-1.087A.75.75 0 0 0 17.535 3ZM5.07 14.25l.337.668.413.832H9v3.75H3v-5.25h2.07Zm.465-1.5H2.25a.75.75 0 0 0-.75.75v6.75a.75.75 0 0 0 .75.75h7.5a.75.75 0 0 0 .75-.75V15a.75.75 0 0 0-.75-.75h-3l-.54-1.088a.75.75 0 0 0-.675-.412ZM17.07 14.25l.337.668.413.832H21v3.75h-6v-5.25h2.07Zm.465-1.5H14.25a.75.75 0 0 0-.75.75v6.75a.75.75 0 0 0 .75.75h7.5a.75.75 0 0 0 .75-.75V15a.75.75 0 0 0-.75-.75h-3l-.54-1.088a.75.75 0 0 0-.675-.412Z"/></g><defs><clipPath id="a"><path fill="#fff" d="M0 0h24v24H0z"/></clipPath></defs></svg>
