<svg xmlns="http://www.w3.org/2000/svg" width="24" height="24" fill="none"><g clip-path="url(#a)"><mask id="b" width="24" height="24" x="0" y="0" maskUnits="userSpaceOnUse" style="mask-type:luminance"><path fill="#fff" d="M0 0h24v24H0V0Z"/></mask><g mask="url(#b)"><path fill="#fff" d="M12 0a1 1 0 0 1 1 1v4a1 1 0 0 1-2 0V1a1 1 0 0 1 1-1ZM4.929 3.515a1 1 0 0 0-1.414 1.414l2.828 2.828a1 1 0 0 0 1.414-1.414L4.929 3.515ZM1 11a1 1 0 0 0 0 2h4a1 1 0 0 0 0-2H1Zm17 1a1 1 0 0 1 1-1h4a1 1 0 0 1 0 2h-4a1 1 0 0 1-1-1Zm-.343 4.243a1 1 0 0 0-1.414 1.414l2.828 2.828a1 1 0 1 0 1.414-1.414l-2.828-2.828Zm-9.9 1.414a1 1 0 1 0-1.414-1.414L3.515 19.07a1 1 0 1 0 1.414 1.414l2.828-2.827ZM20.485 4.929a1 1 0 0 0-1.414-1.414l-2.828 2.828a1 1 0 1 0 1.414 1.414l2.828-2.828ZM13 19a1 1 0 0 0-2 0v4a1 1 0 0 0 2 0v-4ZM12 7a5 5 0 1 0 0 10 5 5 0 0 0 0-10Z"/></g></g><defs><clipPath id="a"><path fill="#fff" d="M0 0h24v24H0z"/></clipPath></defs></svg>
